<svg width="18" height="18" viewBox="0 0 18 18" fill="none" xmlns="http://www.w3.org/2000/svg">
<path fill-rule="evenodd" clip-rule="evenodd" d="M8.99996 0.666626C4.39163 0.666626 0.666626 4.39163 0.666626 8.99996C0.666626 13.6083 4.39163 17.3333 8.99996 17.3333C13.6083 17.3333 17.3333 13.6083 17.3333 8.99996C17.3333 4.39163 13.6083 0.666626 8.99996 0.666626ZM8.99996 15.6666C5.32496 15.6666 2.33329 12.675 2.33329 8.99996C2.33329 5.32496 5.32496 2.33329 8.99996 2.33329C12.675 2.33329 15.6666 5.32496 15.6666 8.99996C15.6666 12.675 12.675 15.6666 8.99996 15.6666ZM8.99996 7.82496L11.9916 4.83329L13.1666 6.00829L10.175 8.99996L13.1666 11.9916L11.9916 13.1666L8.99996 10.175L6.00829 13.1666L4.83329 11.9916L7.82496 8.99996L4.83329 6.00829L6.00829 4.83329L8.99996 7.82496Z" fill="white"/>
</svg>
